<?xml version="1.0" encoding="utf-8"?>
<svg version="1.1"
	id="svg-mana-black" xmlns:rdf="http://www.w3.org/1999/02/22-rdf-syntax-ns#" xmlns:sodipodi="http://sodipodi.sourceforge.net/DTD/sodipodi-0.dtd" xmlns:svg="http://www.w3.org/2000/svg"
	xmlns="http://www.w3.org/2000/svg" xmlns:xlink="http://www.w3.org/1999/xlink" x="0px" y="0px" viewBox="639 217 82 86"
	xml:space="preserve">
    <path id="svg_black" d="M720.7,258.6c0,5.5-2,9.3-6,11.3c-1.2,0.6-4.8,1.4-11,2.4c-4,0.7-6,2.2-6,4.6v10.2
      c0,0.4,0.1,1.7,0.4,3.9l0.4,4c0,1.3-0.3,3.3-0.9,6.1c-1.6,0.3-3.4,0.7-5.5,1.1c-0.7-2.5-1-4.2-1-5.1c0-0.4,0.1-1,0.3-1.9
      c0.2-0.8,0.3-1.5,0.3-1.9c0-0.6-0.5-2.2-1.6-4.9h-1.9c-0.3,0.4-0.3,1-0.3,1.6c0.3,1.4,0.5,2.6,0.4,3.6c-1.4,1-3.4,2.3-5.9,4
      c-0.6-0.2-0.8-0.2-0.6-0.2v-8.9c-0.2-0.4-0.6-0.6-1.3-0.5h-1.5l-1.5,11.8c-1.2,0.1-2.6,0.1-4.3,0c-0.6-2.8-1.6-6.9-3.1-12.3h-1
      c-0.9,2.9-1.4,4.5-1.5,4.8c0,0.3,0.1,1,0.3,1.9c0.2,1,0.3,1.6,0.3,1.9c0,0.2-0.1,0.9-0.2,1.9l-0.4,3c-0.2,0.2-0.4,0.2-0.6,0.2
      c-2.5,0-4.2-0.6-5-1.9c-0.8-1.3-1.2-3-1-5.3l1-15c0-0.3,0.1-0.6,0.2-1c0.2-0.4,0.2-0.7,0.2-0.9c0-0.7-0.7-2-2.1-4
      c-0.2-0.1-1.5-0.4-3.9-0.9c-1.4-0.3-4.2-0.9-8.4-1.8c-5.8-1.1-8.7-5.7-8.7-13.9c0-12.2,5-22.4,15.1-30.5c0.4,2.3,1.1,5.3,2.1,9
      c0.8,0.2,2.4,0.5,4.9,1.1c0.5,0.2,3.1,1.1,7.7,2.8c-2.3-1.4-5.4-3.7-9.2-6.9c-1.4-1.7-2.1-4.5-2.1-8.4c0-0.9,1.6-2,4.8-3.3
      c2.8-1.2,5-1.8,6.4-2c4.5-0.6,8-0.9,10.4-0.9c10.4,0,18.9,2.7,25.3,8c-2.1,2.4-5.7,5-10.8,7.8c2,0.1,4.9-0.7,8.8-2.4
      c3.8-1.7,5.5-2.5,4.9-2.5c0.7,0,2,1.3,4,4c1.5,2,2.7,3.8,3.6,5.4c2.7,4.8,4.5,9.9,5.4,15.4c0,1.9,0,3.3,0.1,4.1L720.7,258.6
      L720.7,258.6z M672.7,260.9c0-3.6-1.6-7-4.7-10.2c-3.1-3.2-6.5-4.8-10.1-4.8c-3.2,0-6,1.3-8.4,4c-2.4,2.7-3.6,5.7-3.6,9
      c0,2.9,1.4,4.7,4.1,5.6c1.8,0.5,4.2,0.8,7.4,0.9h6.9C669.9,265.4,672.7,263.9,672.7,260.9z M686.3,276.4v-3.9
      c-0.6-1.1-1.2-2.2-1.8-3.4c-0.5-1.7-1.4-4-2.8-7l-1.4,14.7c0,1.2-0.2,1.8-0.8,1.8c-0.3,0-0.6-0.1-0.8-0.2
      c-0.6-8.9-0.9-12.7-0.9-11.5v-4.4c-0.2-0.3-0.4-0.4-0.6-0.4c-2.8,2.9-4.3,7.7-4.3,14.2c0,3.6,0.3,5.8,1,6.6c0.7-0.2,1.4-0.5,2.3-0.9
      c0.3-0.2,1.3-0.3,2.9-0.3c1.6,0,3.5,0.5,5.8,1.5C685.9,283.2,686.3,280.9,686.3,276.4z M714.7,259c0-3.4-1.3-6.4-3.8-9
      c-2.5-2.6-5.4-4-8.7-4c-3.5,0-6.8,1.6-9.8,4.8c-3.1,3.2-4.6,6.6-4.6,10.1c0,2.9,1.4,4.4,4.3,4.4h14.4
      C712,265.2,714.7,263.1,714.7,259z"/>
</svg>
