<?xml version="1.0" encoding="utf-8"?>
<svg version="1.1"
	id="svg-mana-blue" xmlns:rdf="http://www.w3.org/1999/02/22-rdf-syntax-ns#" xmlns:sodipodi="http://sodipodi.sourceforge.net/DTD/sodipodi-0.dtd" xmlns:svg="http://www.w3.org/2000/svg"
	xmlns="http://www.w3.org/2000/svg" xmlns:xlink="http://www.w3.org/1999/xlink" x="0px" y="0px" viewBox="549 220 51 82"
	xml:space="preserve">
    <path id="svg_blue" d="M592.5,293.7c-4.8,4.9-10.7,7.3-17.7,7.3c-7.9,0-14.1-2.7-18.7-8.1c-4.4-5.1-6.5-11.7-6.5-19.6
      c0-8.5,3.7-18.3,11.1-29.2c6.1-9,13.2-16.8,21.4-23.6c-1.2,5.5-1.8,9.4-1.8,11.7c0,5.3,1.7,10.5,5,15.5c4.1,6,7.2,10.4,9.4,13.3
      c3.3,5,5,10,5,14.7C599.7,282.9,597.3,288.9,592.5,293.7z M592.4,266.4c-1.3-2.9-2.8-4.8-4.5-5.7c0.3,0.5,0.4,1.2,0.4,2.2
      c0,1.8-0.5,4.4-1.5,7.7l-1.7,5.1c0,3,1.5,4.5,4.5,4.5c3.2,0,4.7-2.1,4.7-6.3C594.3,271.7,593.6,269.2,592.4,266.4z"/>
</svg>
