<?xml version="1.0" encoding="utf-8"?>
<svg version="1.1"
	id="svg-mana-green" xmlns:rdf="http://www.w3.org/1999/02/22-rdf-syntax-ns#" xmlns:sodipodi="http://sodipodi.sourceforge.net/DTD/sodipodi-0.dtd" xmlns:svg="http://www.w3.org/2000/svg"
	xmlns="http://www.w3.org/2000/svg" xmlns:xlink="http://www.w3.org/1999/xlink" x="0px" y="0px" viewBox="846 215 88 91"
	xml:space="preserve">
		<path id="svg_green" d="M933.8,266.2c0,1.7-0.6,3.2-1.9,4.5c-1.3,1.3-2.8,2-4.4,2c-2.7,0-4.6-1.2-5.9-3.7l-5.9-0.2
			c-1.3,0-3.7,0.5-7.4,1.6c-3.9,1.1-6.2,2-6.7,2.6c-0.9,1-1.7,3.3-2.2,7c-0.5,3-0.7,5.2-0.7,6.6c0,2.2,0.4,3.9,1.1,4.9
			s2.2,1.9,4.4,2.6c2.2,0.7,3.6,1.1,4.1,1.2c0.3,0,0.9,0,1.6-0.1h1.5c1.1,0,2.2,0.2,3.4,0.5c1.7,0.5,2.4,1.2,2.1,2
			c-1.2-0.2-3.2,0.1-6.1,0.8l3.5,1.7c0,1-1.4,1.5-4.2,1.5c-0.8,0-1.8-0.2-3.1-0.5c-1.3-0.3-2.1-0.5-2.6-0.5h-1.6
			c-0.1,0.8-0.3,2.1-0.8,3.7c-1.4-0.1-3.1-0.9-5-2.5c-1.9-1.6-3.1-2.4-3.6-2.4c-0.5,0-1.2,0.8-2.1,2.4c-0.9,1.6-1.4,2.7-1.4,3.2
			c-1.1-0.6-2-1.7-2.8-3.2c-0.3-1.1-0.7-2.2-1.1-3.2c-0.8,0.1-2.4,1.8-4.6,5.2h-0.6c-0.2-0.3-0.8-2-1.9-5.2c-2.6-0.8-5-1.2-7.2-1.2
			c-1.1,0-2.7,0.2-5,0.7l-3.5-0.2c0.5-0.5,2-1.5,4.4-2.9c2.8-1.7,5-2.5,6.5-2.5c0.2,0,0.6,0,1,0.1c0.4,0.1,0.8,0.1,1,0.1
			c0.6,0,1.5-0.3,2.8-0.9c1.3-0.6,2-1.2,2.2-1.7c0.2-0.5,0.3-1.8,0.3-3.9c0-4.7-1.2-8.3-3.8-10.6c-2.2-2.1-5.7-3.6-10.7-4.5
			c-1.3,4.7-5.1,7.1-11.2,7.1c-2,0-4-1.2-6-3.6c-2-2.4-3-4.6-3-6.6c0-3.1,1.3-5.6,3.9-7.6c-2.1-2.2-3.1-4.4-3.1-6.6
			c0-2.1,0.6-3.9,1.9-5.5c1.3-1.6,3-2.5,5.1-2.7c-0.2-2.7,0.7-4.5,2.6-5.5c-0.9-0.9-1.4-2.5-1.4-4.9c0-2.7,0.9-5,2.7-6.9
			c1.8-1.8,4.1-2.8,6.9-2.8c3,0,5.5,1,7.4,3.1c2.4-8.2,7.6-12.4,15.6-12.4c4.2,0,7.8,1.7,11,5c1.2,1.2,1.7,1.9,1.7,2
			c-1,0-0.5-0.2,1.5-0.6c2-0.4,3.5-0.6,4.4-0.6c3.2,0,6.1,1.2,8.6,3.6c2.2,2.2,3.7,4.9,4.5,8.2c0.6,0.1,1.5,0.3,2.7,0.7
			c1.8,0.9,2.7,2.5,2.7,4.7c0,0.4-0.3,1.2-1,2.4c5.3,3,8,7.2,8,12.5c0,1.5-0.6,3.6-1.7,6.2C932.7,262,933.8,263.8,933.8,266.2z
			M882.3,271.7v-1.6c0-1.9-0.9-3.7-2.8-5.2c-1.9-1.6-3.8-2.4-5.7-2.4c-2.3,0-4.5,0.5-6.5,1.6C871.7,263.9,876.7,266.4,882.3,271.7z
			M880,256.2c-1.2-1.4-2.3-2.9-3.2-4.4c-3.5,0.9-5.2,2-5.2,3.1c1-0.1,2.5,0.1,4.4,0.6S879.2,256.2,880,256.2z M887.7,252.4v-5.5
			c-2-0.3-3.2-0.5-3.6-0.5v1.9L887.7,252.4z M903.9,248.9c-1-0.4-2.9-1.2-5.6-2.5v10.7C902.2,254.9,904.1,252.1,903.9,248.9z
			M910.8,263.6l-2.7-3.4c-1.7,1.2-3.4,2.4-5.1,3.6s-3.2,2.6-4.4,4.1C902.3,265.9,906.4,264.4,910.8,263.6z"/>
</svg>
