<?xml version="1.0" encoding="utf-8"?>
<svg version="1.1"
	id="svg-mana-red" xmlns:rdf="http://www.w3.org/1999/02/22-rdf-syntax-ns#" xmlns:sodipodi="http://sodipodi.sourceforge.net/DTD/sodipodi-0.dtd" xmlns:svg="http://www.w3.org/2000/svg"
	xmlns="http://www.w3.org/2000/svg" xmlns:xlink="http://www.w3.org/1999/xlink" x="0px" y="0px" viewBox="751 216 78 88"
	xml:space="preserve">
    <path id="svg_red" d="M827,276.6c-3.7,8.9-11.2,13.4-22.3,13.4c-2,0-4.2,0.3-6.6,0.8c-3.6,0.8-5.3,1.8-5.3,3.2
      c0,0.4,0.3,0.9,0.9,1.5c0.6,0.6,1.1,0.8,1.5,0.8c-2.1,0-0.7,0.1,4.3,0.2c5,0.1,8.1,0.2,9.4,0.2c-7.4,4.3-19.7,6.3-37,6
      c-5.7-0.1-10.6-2.6-14.6-7.5c-4-4.7-6-9.9-6-15.7c0-6.1,2.1-11.3,6.2-15.6c4.1-4.3,9.2-6.4,15.3-6.4c1.4,0,3.2,0.3,5.4,0.9
      c2.2,0.6,3.8,0.9,4.5,0.9c3.1,0,7-1.3,11.7-3.9c4.7-2.6,6.9-3.9,6.6-3.9c-0.8,8.9-3.8,14.9-8.9,17.9c-3.6,2.1-5.5,4.2-5.5,6.2
      c0,1.3,0.8,2.3,2.3,3.1c1.2,0.6,2.5,0.9,3.9,0.9c2.2,0,4.4-1.4,6.5-4.1c2.1-2.7,3.1-5.2,2.8-7.4c-0.3-2.5-0.1-5.6,0.5-9.2
      c0.2-1,0.8-2.3,1.8-3.8c1.1-1.5,2-2.4,2.9-2.7c0,0.8-0.3,2-0.8,3.8c-0.6,1.8-0.8,3.1-0.8,3.9c0,1.9,0.5,3.3,1.5,4.3
      c1.5-0.6,2.9-2.5,4.1-5.7c1-2.5,1.6-4.8,1.8-7.1c-3.6-0.2-7-1.8-10.2-4.8c-3.3-3.1-4.9-6.4-4.9-9.9c0-0.6,0.1-1.2,0.3-1.8
      c0.5,0.8,1.3,2,2.3,3.6c1.4,2.1,2.5,3.2,3.3,3.2c1,0,1.5-1.1,1.5-3.2c0-2.7-0.7-5.2-2.2-7.4c-1.6-2.6-3.7-3.9-6.2-3.9
      c-1.2,0-3,0.6-5.3,1.9c-2.4,1.3-4.5,1.9-6.5,1.9c-0.6,0-3.2-0.8-7.9-2.3c8.2-1.4,12.3-2.6,12.3-3.7c0-2.9-5.6-4.8-16.9-5.9
      c-1.1-0.1-3.1-0.3-6.1-0.5c0.3-0.4,2.8-0.9,7.3-1.4c3.8-0.4,6.5-0.6,8-0.6c20.2,0,33,9.8,38.4,29.4c0.9-0.8,1.4-2.1,1.4-3.9
      c0-2.3-0.7-5.2-2-8.8c-0.5-1.4-1.3-3.4-2.4-6.2c7,8.9,10.4,17.3,10.4,25.2c0,4.2-1,8-2.9,11.4c-1.3,2.3-3.7,5.2-7.1,8.8
      c-3.5,3.6-5.9,6.4-7.1,8.3c4.7-1.3,7.7-2.2,9.2-2.9c3.2-1.4,6.2-3.6,8.8-6.5C828.4,272.8,827.9,274.4,827,276.6z M771.5,226.6
      c0,1.5-0.8,2.5-2.5,2.9l-3.3,0.5c-1.2,0.6-2.9,2.9-5.2,7c-0.3-1.3-0.6-3.1-1.1-5.3c-0.8,0.1-2,0.8-3.8,2c-0.8,0.6-2,1.5-3.7,2.7
      c0.5-3.1,2.2-6.1,5.1-9.3c3.1-3.5,6-5.2,8.9-5.2C769.6,221.9,771.5,223.5,771.5,226.6z M793.6,238.3c0,1.4-0.8,2.7-2.4,3.6
      c-1.6,1-3.1,1.5-4.6,1.5c-2,0-3.9-1.1-5.5-3.4c-2-2.8-3.9-4.6-6-5.5c0.4-0.4,0.9-0.6,1.5-0.6c0.8,0,2.1,0.6,3.9,1.8
      c1.8,1.2,3,1.8,3.5,1.8c0.4,0,1.1-0.6,2.1-1.8c1-1.2,2.1-1.8,3.2-1.8C792.2,233.8,793.6,235.3,793.6,238.3z"/>
</svg>
