<?xml version="1.0" encoding="utf-8"?>
<svg version="1.1"
	id="svg-mana-white" xmlns:rdf="http://www.w3.org/1999/02/22-rdf-syntax-ns#" xmlns:svg="http://www.w3.org/2000/svg"
	xmlns="http://www.w3.org/2000/svg" xmlns:xlink="http://www.w3.org/1999/xlink" x="0px" y="0px" viewBox="422 212 96 97"
	xml:space="preserve">
		<path id="svg_white" d="M517.7,267.1c-6.6-3.7-10.8-5.6-12.6-5.6c-1.3,0-2.4,1-3.2,3.1c-0.8,2.1-2.3,3.1-4.5,3.1
			c-0.9,0-2.8-0.3-5.7-1c-1.6,2.4-2.4,4-2.4,4.7c0,0.9,0.7,2,2.1,3.3c1.4,1.3,2.5,1.9,3.5,1.9c0.6,0,1.4-0.1,2.4-0.4
			c1-0.2,1.7-0.4,2.1-0.4c1,0,1.5,1.9,1.5,5.7c0,3.6-0.8,9.2-2.5,16.7c-2.2-8.6-4.5-12.9-6.9-12.9c-0.3,0-1,0.3-2.1,0.8
			c-1.1,0.5-1.8,0.8-2.3,0.8c-2.4,0-4.6-2.2-6.6-6.7c-3.9,0.6-5.8,2.6-5.8,5.9c0,1.7,0.8,3,2.3,4c1.6,1,2.3,1.7,2.3,2.1
			c0,2.3-3.3,5.8-10,10.5c-3.5,2.5-6,4.3-7.3,5.3c1.2-1.5,2.4-3.5,3.5-5.9c1.3-2.8,2-4.9,2-6.4c0-0.8-1-2-2.9-3.5
			c-1.9-1.5-2.9-3.1-2.9-4.8c0-1.4,0.5-3.2,1.5-5.3c-1.1-1.3-2.4-1.9-3.9-1.9c-3.4,0-5,1.1-5,3.3c0-1.5,0-0.4,0,3.4
			c0.1,2.8-2,4.2-6.3,4.2c-3.3,0-8.8-0.8-16.5-2.3c8.7-2.2,13.1-4.7,13.1-7.6c0,0.3-0.2-0.7-0.5-3c-0.3-2.6,1.5-5,5.6-7.1
			c-0.8-3.9-2.8-5.8-6.1-5.8c-0.5,0-1.4,0.9-2.8,2.6c-1.3,1.8-2.6,2.7-3.8,2.7c-2,0-4.6-2.2-7.8-6.6c-1.5-2.2-3.8-5.4-6.9-9.7
			c1.9,1,3.9,2,5.8,3c2.5,1.2,4.5,1.8,6.1,1.8c1.2,0,2.3-1,3.5-3.1s2.6-3.1,4.5-3.1c0.3,0,1.9,0.5,5,1.5c1.6-2.4,2.4-4.2,2.4-5.4
			c0-1-0.6-2.2-1.8-3.5c-1.2-1.3-2.3-2-3.3-2c-0.4,0-1.1,0.1-2,0.4c-0.9,0.3-1.5,0.4-2,0.4c-1.5,0-2.3-1.9-2.3-5.7c0-1,1-6.8,2.9-17.3
			c-0.1,1.3,0.5,3.6,1.6,7.1c1.4,4.2,3.1,6.3,5,6.3c0.3,0,1-0.3,2-0.8c1-0.5,1.8-0.8,2.4-0.8c1.9,0,3.5,1.1,4.8,3.3l1.9,3.4
			c1.8,0,3.2-0.6,4.4-1.9c1.2-1.3,1.8-2.8,1.8-4.5c0-1.9-0.8-3.3-2.3-4.2c-1.6-1-2.3-1.7-2.3-2.2c0-1.8,2.8-4.8,8.3-9
			c4.5-3.4,7.4-5.3,8.7-5.9c-3.6,4.9-5.4,8.5-5.4,10.7c0,1.2,0.7,2.4,2.1,3.8c1.8,1.6,2.8,2.7,3,3.4c0.8,1.9,0.8,4.6-0.3,7.9
			c2.3,1.6,4,2.4,5.2,2.4c2.4,0,3.7-1.3,3.7-3.8c0-0.3-0.1-1.1-0.3-2.4c-0.2-1.3-0.3-2.1-0.2-2.3c0.3-1.2,2.6-1.8,6.9-1.8
			c2.7,0,8.3,0.8,16.8,2.3c-1.9,0.5-4.6,1.3-8.3,2.3c-3.4,1-5,2.1-5,3.4c0,0.6,0.2,1.6,0.6,3c0.4,1.4,0.6,2.5,0.6,3.2
			c0,1.2-0.8,2.3-2.3,3.3l-4.3,3c1,1.9,1.7,2.9,2,3.3c0.8,1,2,1.5,3.4,1.5c1,0,1.9-0.9,2.8-2.6c0.8-1.8,2.2-2.6,4-2.6
			c2.3,0,4.8,2.1,7.7,6.3C511.8,258.7,514.3,262.3,517.7,267.1z M489.7,259.8c0-5.4-2-10.1-5.9-14c-4-4-8.6-5.9-14-5.9
			c-5.5,0-10.2,2-14.1,5.9c-4,3.9-6,8.6-6.1,14.1c-0.1,5.4,1.9,10,6,13.9c4.1,3.9,8.8,5.9,14.2,5.9c5.7,0,10.5-1.9,14.3-5.6
			C487.9,270.2,489.8,265.5,489.7,259.8z M487.8,259.8c0,5.1-1.7,9.4-5.2,12.7c-3.5,3.4-7.7,5-12.9,5c-5,0-9.2-1.7-12.7-5.2
			c-3.5-3.4-5.3-7.7-5.3-12.6c0-4.9,1.8-9.1,5.4-12.6c3.6-3.5,7.8-5.2,12.7-5.2c4.9,0,9.1,1.8,12.7,5.3
			C486,250.8,487.8,255,487.8,259.8z"/>
</svg>
